<svg width="35" height="35" viewBox="0 0 35 35" fill="none" xmlns="http://www.w3.org/2000/svg">
<path d="M17.4863 1.11018C7.77377 0.973464 0.560488 9.29143 1.04447 18.1864C1.61596 28.6617 9.10541 33.9254 17.8663 33.8653C27.0702 33.8024 34.0538 27.2781 33.8624 17.4235C33.6738 7.58518 26.4386 1.2387 17.4863 1.11018Z" fill="#FF761B"/>
<path d="M9.80549 4.159C3.00784 8.05548 -1.307 19.0996 5.93362 27.4559C6.81956 28.4785 8.22776 29.1922 9.2969 29.6789C16.5977 32.9793 25.4324 27.9043 28.8504 24.0352C31.5629 20.9645 32.561 18.9274 32.2383 14.7356C31.9895 11.4762 30.5949 8.32892 27.7047 6.00196C21.1696 0.730089 14.1231 1.68165 9.80549 4.159Z" fill="#FF6600"/>
<path d="M16.6522 10.8801C16.6276 10.8664 14.0983 9.41444 12.1351 8.6871C10.0897 7.92968 8.58037 7.52225 8.56396 7.51952L8.84561 6.46405C8.9085 6.48046 10.4179 6.88514 12.5151 7.66444C14.5659 8.4246 17.0925 9.87382 17.1991 9.93671L16.6522 10.8801Z" fill="#232B36"/>
<path d="M21.1003 8.02646L22.5887 2.71576L23.6419 3.01107L22.1539 8.3215L21.1003 8.02646Z" fill="#232B36"/>
<path d="M32.1562 14.9078C32.1426 14.9024 30.6879 14.35 29.0637 13.9098C27.8414 13.5789 26.2664 13.2426 26.25 13.2399L26.477 12.1707C26.5426 12.1844 28.0957 12.5152 29.348 12.8543C31.0297 13.3082 32.4844 13.8633 32.5473 13.8852L32.1562 14.9078Z" fill="#232B36"/>
<path d="M23.5512 25.6375C23.5512 25.6211 23.4145 23.9531 23.0863 22.2469C22.7609 20.5625 22.1402 18.9765 22.1348 18.9629L23.152 18.5609C23.1793 18.6293 23.8164 20.2535 24.1609 22.0418C24.5 23.8109 24.6367 25.4816 24.6422 25.5527L23.5512 25.6375Z" fill="#232B36"/>
<path d="M28.9899 27.1578L28.2681 26.3348C28.279 26.3266 29.329 25.3969 30.6251 23.6469C31.8228 22.0282 32.3751 20.6117 32.3806 20.5953L33.4005 20.9864C33.3759 21.0492 32.788 22.5586 31.5028 24.2949C30.1329 26.1489 29.0364 27.1168 28.9899 27.1578Z" fill="#232B36"/>
<path d="M8.98145 21.5682L15.3091 15.9201L16.0375 16.736L9.71016 22.3842L8.98145 21.5682Z" fill="#232B36"/>
<path d="M3.53018 20.0567C3.51377 19.95 3.15283 17.4207 3.15283 15.1074C3.15283 12.7996 3.41533 10.6641 3.429 10.5739L4.51455 10.7106C4.51182 10.7324 4.24932 12.8707 4.24932 15.1074C4.24932 17.3387 4.61299 19.8762 4.61572 19.9008L3.53018 20.0567Z" fill="#232B36"/>
<path d="M19.496 31.0762C19.4276 31.068 17.7597 30.8574 14.8749 30.0098C13.0374 29.4684 10.9374 28.3582 10.8472 28.3117L11.3612 27.3465C11.3831 27.3574 13.453 28.4539 15.1839 28.9625C17.9729 29.7828 19.6136 29.9906 19.63 29.9934L19.496 31.0762Z" fill="#232B36"/>
<path d="M14.5934 8.94689C14.5086 9.16017 14.6207 16.7754 14.793 17.0024C14.9652 17.2293 22.6215 19.8297 22.9633 19.7449C23.3051 19.6602 27.3902 13.2317 27.3902 12.9746C27.3902 12.7176 22.3645 6.51877 22.1074 6.46134C21.8504 6.40392 14.7082 8.65978 14.5934 8.94689Z" fill="#232B36"/>
<path d="M32.0907 9.88202C32.0907 9.88202 30.9641 13.6308 30.9641 13.918C30.9641 14.2023 31.6504 15.7746 31.9649 17.716C32.2793 19.6574 31.8227 22.5723 32.0223 22.6871C32.2219 22.8019 33.2118 22.7445 33.2118 22.7445C33.2118 22.7445 34.1661 19.7449 33.7641 15.8894C33.3622 12.0312 32.0907 9.88202 32.0907 9.88202Z" fill="#232B36"/>
<path d="M23.9641 24.8008C23.7344 24.8227 17.7079 29.9988 17.7352 30.1438C17.7625 30.2859 20.095 33.7231 20.095 33.7231C20.095 33.7231 23.0262 33.4906 25.7114 32.0359C28.3965 30.5813 29.4164 29.2879 29.4164 29.2879C29.4164 29.2879 29.7883 25.8316 29.6461 25.8043C29.5067 25.7715 24.2512 24.7734 23.9641 24.8008Z" fill="#232B36"/>
<path d="M3.85264 18.3449C3.69678 18.4734 2.79443 20.4586 2.5374 21.5742C2.28037 22.6871 2.13818 23.7453 2.13818 23.7453C2.13818 23.7453 2.82451 25.7305 3.85264 27.2015C5.12686 29.0226 6.78389 30.3078 6.78389 30.3078C6.78389 30.3078 12.1925 28.659 12.2226 28.4293C12.2526 28.1996 11.5937 26.2008 11.137 24.5437C10.6804 22.8867 10.5956 21.0301 10.4233 20.9152C10.2511 20.8004 8.50928 20.259 7.13936 19.7148C5.76943 19.1707 4.0249 18.2027 3.85264 18.3449Z" fill="#232B36"/>
<path d="M2.15747 11.4516C2.15747 11.4516 3.65317 12.7449 3.88286 12.7449C4.11255 12.7449 5.56177 10.8254 7.02466 9.66053C8.99614 8.08827 9.96685 7.57421 9.99692 7.3746C10.0243 7.17499 10.8829 2.4035 10.8829 2.4035C10.8829 2.4035 7.71099 3.60389 5.39771 6.25897C3.08442 8.91405 2.15747 11.4516 2.15747 11.4516Z" fill="#232B36"/>
<path d="M18.334 1.12927C18.334 1.12927 20.1578 2.06716 20.8223 2.52927C21.4867 2.99138 22.4656 3.97029 22.7555 4.00037C23.0426 4.03044 27.0102 4.03318 27.0102 4.03318C27.0102 4.03318 25.2109 2.80271 23.2176 2.09724C20.8195 1.24685 18.334 1.12927 18.334 1.12927Z" fill="#232B36"/>
</svg>
