<svg width="28" height="28" viewBox="0 0 28 28" fill="none" xmlns="http://www.w3.org/2000/svg">
<path d="M23.5487 20.7083C24.032 20.7083 24.4237 20.3165 24.4237 19.8333C24.4237 19.3501 24.032 18.9583 23.5487 18.9583V20.7083ZM15.7267 24.8069C15.574 25.2654 15.8219 25.7608 16.2804 25.9135C16.7389 26.0661 17.2344 25.8182 17.3871 25.3597L15.7267 24.8069ZM4.66389 18.9583C4.18064 18.9583 3.78889 19.3501 3.78889 19.8333C3.78889 20.3165 4.18064 20.7083 4.66389 20.7083V18.9583ZM10.8256 25.3597C10.9783 25.8182 11.4737 26.0661 11.9322 25.9135C12.3907 25.7608 12.6387 25.2654 12.4861 24.8069L10.8256 25.3597ZM6.48192 6.3693C6.35697 5.90247 5.87726 5.62533 5.41044 5.75027C4.94362 5.87521 4.66647 6.35492 4.79141 6.82175L6.48192 6.3693ZM1.89854 13.9859C1.49541 14.2523 1.38462 14.7952 1.6511 15.1983C1.91759 15.6015 2.46042 15.7122 2.86355 15.4457L1.89854 13.9859ZM23.2562 6.82185C23.3812 6.35504 23.104 5.87531 22.6372 5.75037C22.1704 5.62544 21.6907 5.90259 21.5658 6.36941L23.2562 6.82185ZM25.184 15.4458C25.5872 15.7123 26.1301 15.6016 26.3966 15.1984C26.663 14.7953 26.5522 14.2524 26.1491 13.986L25.184 15.4458ZM18.7719 4.47558C19.1668 4.19706 19.2611 3.65113 18.9826 3.25623C18.7042 2.86131 18.1581 2.76696 17.7632 3.04549L18.7719 4.47558ZM10.0512 2.796C9.6624 2.509 9.11456 2.59153 8.82757 2.98033C8.54057 3.36913 8.6231 3.91697 9.0119 4.20396L10.0512 2.796ZM24.7646 14C24.7646 19.9611 19.9381 24.7916 13.9865 24.7916V26.5416C20.9066 26.5416 26.5146 20.9255 26.5146 14H24.7646ZM13.9865 24.7916C8.03476 24.7916 3.20825 19.9611 3.20825 14H1.45825C1.45825 20.9255 7.06636 26.5416 13.9865 26.5416V24.7916ZM3.20825 14C3.20825 8.03896 8.03476 3.20831 13.9865 3.20831V1.45831C7.06636 1.45831 1.45825 7.07437 1.45825 14H3.20825ZM13.9865 3.20831C19.9381 3.20831 24.7646 8.03896 24.7646 14H26.5146C26.5146 7.07437 20.9066 1.45831 13.9865 1.45831V3.20831ZM14.1623 11.7361L16.3049 13.3748L17.3681 11.9847L15.2254 10.346L14.1623 11.7361ZM16.4063 13.6931L15.5648 16.4196L17.2369 16.9358L18.0785 14.2093L16.4063 13.6931ZM15.2874 16.625H12.6854V18.375H15.2874V16.625ZM12.4081 16.4196L11.5666 13.6931L9.89439 14.2093L10.736 16.9358L12.4081 16.4196ZM11.668 13.3748L13.8106 11.7361L12.7475 10.346L10.6049 11.9847L11.668 13.3748ZM23.5487 18.9583H21.6644V20.7083H23.5487V18.9583ZM16.4122 22.7479L15.7267 24.8069L17.3871 25.3597L18.0726 23.3006L16.4122 22.7479ZM21.6644 18.9583C20.8739 18.9583 20.2074 18.957 19.6647 19.019C19.0995 19.0836 18.5807 19.2244 18.1098 19.5642L19.1339 20.9833C19.2734 20.8826 19.4653 20.8032 19.8633 20.7577C20.2839 20.7096 20.8335 20.7083 21.6644 20.7083V18.9583ZM18.0726 23.3006C18.3354 22.5115 18.5105 21.9898 18.6891 21.6054C18.8583 21.2414 18.9943 21.084 19.1339 20.9833L18.1098 19.5642C17.6391 19.9039 17.3418 20.3518 17.1021 20.8679C16.8717 21.3636 16.6623 21.9969 16.4122 22.7479L18.0726 23.3006ZM4.66389 20.7083H6.54817V18.9583H4.66389V20.7083ZM10.14 23.3006L10.8256 25.3597L12.4861 24.8069L11.8004 22.7479L10.14 23.3006ZM6.54817 20.7083C7.37908 20.7083 7.92871 20.7096 8.34926 20.7577C8.7474 20.8032 8.93924 20.8826 9.07874 20.9833L10.1028 19.5642C9.63189 19.2244 9.11318 19.0836 8.54799 19.019C8.00521 18.957 7.33873 18.9583 6.54817 18.9583V20.7083ZM11.8004 22.7479C11.5504 21.9969 11.341 21.3636 11.1106 20.8679C10.8708 20.3519 10.5735 19.9039 10.1028 19.5642L9.07874 20.9833C9.21831 21.084 9.35443 21.2414 9.52358 21.6054C9.7022 21.9898 9.87731 22.5115 10.14 23.3006L11.8004 22.7479ZM4.79141 6.82175L5.2791 8.64392L6.9696 8.19147L6.48192 6.3693L4.79141 6.82175ZM3.70771 12.7899L1.89854 13.9859L2.86355 15.4457L4.67272 14.2499L3.70771 12.7899ZM5.2791 8.64392C5.49414 9.44738 5.63516 9.97943 5.69766 10.3988C5.75686 10.7959 5.72989 11.0025 5.6687 11.1638L7.30507 11.7841C7.51086 11.2413 7.51246 10.7037 7.42855 10.1408C7.34795 9.60004 7.17423 8.95605 6.9696 8.19147L5.2791 8.64392ZM4.67272 14.2499C5.33248 13.8138 5.88933 13.4472 6.30808 13.096C6.74411 12.7305 7.09927 12.3271 7.30507 11.7841L5.6687 11.1638C5.60755 11.3252 5.49094 11.4975 5.18366 11.7552C4.8591 12.0273 4.4011 12.3316 3.70771 12.7899L4.67272 14.2499ZM21.5658 6.36941L21.0781 8.19158L22.7686 8.64402L23.2562 6.82185L21.5658 6.36941ZM23.3749 14.25L25.184 15.4458L26.1491 13.986L24.34 12.79L23.3749 14.25ZM21.0781 8.19158C20.8734 8.95615 20.6997 9.60014 20.6191 10.1409C20.5352 10.7038 20.5367 11.2414 20.7425 11.7842L22.3789 11.1639C22.3178 11.0026 22.2908 10.796 22.35 10.3989C22.4125 9.97953 22.5534 9.4475 22.7686 8.64402L21.0781 8.19158ZM24.34 12.79C23.6465 12.3318 23.1886 12.0274 22.864 11.7552C22.5567 11.4976 22.44 11.3253 22.3789 11.1639L20.7425 11.7842C20.9483 12.3272 21.3035 12.7306 21.7396 13.0962C22.1583 13.4473 22.7151 13.8139 23.3749 14.25L24.34 12.79ZM17.7632 3.04549L16.2229 4.13192L17.2315 5.56202L18.7719 4.47558L17.7632 3.04549ZM11.7961 4.08402L10.0512 2.796L9.0119 4.20396L10.7568 5.49199L11.7961 4.08402ZM16.2229 4.13192C15.5435 4.611 15.0934 4.92685 14.722 5.13006C14.3702 5.32248 14.1677 5.3681 13.996 5.36624L13.9769 7.11614C14.5576 7.12242 15.0626 6.93839 15.5617 6.66538C16.0411 6.40317 16.5851 6.01784 17.2315 5.56202L16.2229 4.13192ZM10.7568 5.49199C11.3931 5.96169 11.9287 6.3587 12.4023 6.63121C12.8954 6.91495 13.3964 7.10986 13.9769 7.11614L13.996 5.36624C13.8242 5.36438 13.6227 5.31438 13.2752 5.1144C12.9082 4.9032 12.4649 4.57769 11.7961 4.08402L10.7568 5.49199ZM16.3049 13.3748C16.3541 13.4123 16.3887 13.4632 16.4064 13.5205L18.0785 13.0042C17.9562 12.6081 17.7132 12.2487 17.3681 11.9847L16.3049 13.3748ZM16.4064 13.5205C16.4234 13.5758 16.4241 13.6355 16.4063 13.6931L18.0785 14.2093C18.2026 13.8074 18.1969 13.3879 18.0785 13.0042L16.4064 13.5205ZM21.226 10.6657L16.9076 12.4539L17.5772 14.0708L21.8956 12.2825L21.226 10.6657ZM15.2254 10.346C14.8599 10.0664 14.4227 9.92646 13.9865 9.92646V11.6764C14.0488 11.6764 14.1102 11.6962 14.1623 11.7361L15.2254 10.346ZM13.9865 9.92646C13.5503 9.92646 13.113 10.0664 12.7475 10.346L13.8106 11.7361C13.8627 11.6962 13.9241 11.6764 13.9865 11.6764V9.92646ZM14.8615 10.8015V6.24119H13.1115V10.8015H14.8615ZM15.5648 16.4196C15.5468 16.4781 15.5122 16.527 15.4667 16.5628L16.5493 17.9377C16.867 17.6876 17.1115 17.342 17.2369 16.9358L15.5648 16.4196ZM15.4667 16.5628C15.4163 16.6026 15.3541 16.625 15.2874 16.625V18.375C15.7573 18.375 16.1986 18.2139 16.5493 17.9377L15.4667 16.5628ZM19.2839 19.7015L16.6699 16.6779L15.346 17.8226L17.96 20.846L19.2839 19.7015ZM12.6854 16.625C12.6188 16.625 12.5566 16.6026 12.5062 16.5628L11.4236 17.9377C11.7743 18.2139 12.2156 18.375 12.6854 18.375V16.625ZM12.5062 16.5628C12.4607 16.527 12.4261 16.4781 12.4081 16.4196L10.736 16.9358C10.8614 17.342 11.1059 17.6876 11.4236 17.9377L12.5062 16.5628ZM10.2789 20.8141L12.6531 17.7907L11.2767 16.7099L8.90256 19.7333L10.2789 20.8141ZM11.5666 13.6931C11.5487 13.6355 11.5495 13.5758 11.5666 13.5205L9.89441 13.0042C9.77599 13.3879 9.77034 13.8074 9.89439 14.2093L11.5666 13.6931ZM11.5666 13.5205C11.5842 13.4632 11.6188 13.4123 11.668 13.3748L10.6049 11.9847C10.2597 12.2487 10.0167 12.6081 9.89441 13.0042L11.5666 13.5205ZM11.0703 12.456L6.8267 10.6677L6.14708 12.2803L10.3907 14.0687L11.0703 12.456Z" fill="white" fill-opacity="0.5"/>
</svg>
