<svg width="28" height="28" viewBox="0 0 28 28" fill="none" xmlns="http://www.w3.org/2000/svg">
<g clip-path="url(#clip0_3617_86)">
<path d="M23.3333 4.66665V23.3333H4.66659V4.66665H23.3333ZM24.4999 2.33331H3.49992C3.1905 2.33331 2.89375 2.45623 2.67496 2.67502C2.45617 2.89381 2.33325 3.19056 2.33325 3.49998V24.5C2.33325 24.8094 2.45617 25.1061 2.67496 25.3249C2.89375 25.5437 3.1905 25.6666 3.49992 25.6666H24.4999C24.8093 25.6666 25.1061 25.5437 25.3249 25.3249C25.5437 25.1061 25.6666 24.8094 25.6666 24.5V3.49998C25.6666 3.19056 25.5437 2.89381 25.3249 2.67502C25.1061 2.45623 24.8093 2.33331 24.4999 2.33331Z" fill="white" fill-opacity="0.5"/>
<path d="M19.8333 17.5H8.16667C7.85725 17.5 7.5605 17.6229 7.34171 17.8417C7.12292 18.0605 7 18.3572 7 18.6667C7 18.9761 7.12292 19.2728 7.34171 19.4916C7.5605 19.7104 7.85725 19.8333 8.16667 19.8333H19.8333C20.1428 19.8333 20.4395 19.7104 20.6583 19.4916C20.8771 19.2728 21 18.9761 21 18.6667C21 18.3572 20.8771 18.0605 20.6583 17.8417C20.4395 17.6229 20.1428 17.5 19.8333 17.5Z" fill="white" fill-opacity="0.5"/>
<path d="M19.8332 12.8333H16.3332C16.0238 12.8333 15.727 12.9562 15.5082 13.175C15.2894 13.3938 15.1665 13.6906 15.1665 14C15.1665 14.3094 15.2894 14.6061 15.5082 14.8249C15.727 15.0437 16.0238 15.1666 16.3332 15.1666H19.8332C20.1426 15.1666 20.4393 15.0437 20.6581 14.8249C20.8769 14.6061 20.9998 14.3094 20.9998 14C20.9998 13.6906 20.8769 13.3938 20.6581 13.175C20.4393 12.9562 20.1426 12.8333 19.8332 12.8333Z" fill="white" fill-opacity="0.5"/>
<path d="M19.8332 8.16663H16.3332C16.0238 8.16663 15.727 8.28954 15.5082 8.50833C15.2894 8.72713 15.1665 9.02387 15.1665 9.33329C15.1665 9.64271 15.2894 9.93946 15.5082 10.1583C15.727 10.377 16.0238 10.5 16.3332 10.5H19.8332C20.1426 10.5 20.4393 10.377 20.6581 10.1583C20.8769 9.93946 20.9998 9.64271 20.9998 9.33329C20.9998 9.02387 20.8769 8.72713 20.6581 8.50833C20.4393 8.28954 20.1426 8.16663 19.8332 8.16663Z" fill="white" fill-opacity="0.5"/>
<path d="M11.6667 8.16663H8.16667C7.52233 8.16663 7 8.68896 7 9.33329V14C7 14.6443 7.52233 15.1666 8.16667 15.1666H11.6667C12.311 15.1666 12.8333 14.6443 12.8333 14V9.33329C12.8333 8.68896 12.311 8.16663 11.6667 8.16663Z" fill="white" fill-opacity="0.5"/>
</g>
<defs>
<clipPath id="clip0_3617_86">
<rect width="28" height="28" fill="white"/>
</clipPath>
</defs>
</svg>
