<svg width="28" height="28" viewBox="0 0 28 28" fill="none" xmlns="http://www.w3.org/2000/svg">
<path fill-rule="evenodd" clip-rule="evenodd" d="M18.6577 24.1659L18.8149 24.3249L18.8286 24.3385C20.4342 25.8916 22.354 25.3836 23.2961 24.5299L23.3048 24.5221L24.1238 23.7595C24.2162 23.6735 24.2889 23.5685 24.3368 23.4518C24.3848 23.335 24.407 23.2093 24.4018 23.0832C24.3966 22.9571 24.3642 22.8336 24.3068 22.7212C24.2494 22.6088 24.1684 22.5101 24.0693 22.432C24.0693 22.432 23.1607 21.7162 22.5335 21.1262C22.4885 21.0837 22.4445 21.0403 22.4014 20.996C23.7056 18.9553 24.3074 16.2571 24.3074 13.5913C24.3074 10.2913 23.3064 7.02673 21.2771 4.92279C19.3645 2.94004 16.4918 2 13.6537 2C10.8919 2 8.1011 2.89381 6.20483 4.78264C4.08471 6.8946 3 10.2071 3 13.5913C3 16.719 3.83592 19.8834 5.68333 21.9615C7.62496 24.1454 10.6708 25.2364 13.6695 25.1824C15.2741 25.1535 17.3399 24.7859 18.6577 24.1659ZM19.4313 22.4597C19.2847 22.3114 19.0898 22.2204 18.882 22.2031C18.6742 22.1858 18.467 22.2433 18.2978 22.3652C17.3309 23.0621 15.2065 23.4044 13.638 23.4327C11.1483 23.4775 8.60321 22.6119 6.99131 20.7988C5.40479 19.0144 4.75 16.2771 4.75 13.5913C4.75 10.6912 5.6231 7.83231 7.43989 6.02237C9.01766 4.45087 11.3558 3.75 13.6537 3.75C16.0164 3.75 18.4252 4.48704 20.0176 6.13773C21.7577 7.94183 22.5574 10.7615 22.5574 13.5913C22.5574 16.1051 21.9837 18.6642 20.6366 20.4746C20.5194 20.6321 20.4466 20.8246 20.4536 21.0606C20.4586 21.2259 20.5427 21.5424 20.8264 21.8782C21.1167 22.222 21.7088 22.7452 22.1997 23.1598L22.1174 23.2364C21.6793 23.63 20.7972 23.8003 20.0536 23.0887L19.4313 22.4597ZM16.377 21.0798C16.5086 21.0242 16.6246 20.9372 16.7148 20.8264C16.805 20.7157 16.8667 20.5845 16.8945 20.4444C16.9223 20.3042 16.9154 20.1594 16.8744 20.0226C16.8333 19.8858 16.7594 19.7611 16.659 19.6594L15.1142 18.0934L15.4033 17.814L15.4139 17.8037C15.5093 17.7083 15.7047 17.689 15.909 17.6672C16.3026 17.6249 16.7775 17.6542 17.0455 17.9155C17.1032 17.9744 17.6568 18.5406 17.7728 18.6569C17.8193 18.7037 17.8496 18.7291 17.855 18.7336C18.2082 19.0265 18.5231 18.9304 18.5804 18.9193C18.8713 18.8629 19.0643 18.7008 19.1865 18.471C19.8747 17.1764 20.2379 15.3366 20.2379 13.5913C20.2379 11.3295 19.6234 9.0945 18.4052 7.6525C17.2128 6.24083 15.4232 5.57189 13.6537 5.57189C11.9307 5.57189 10.1912 6.2086 9.00819 7.55421C7.73506 9.00233 7.06948 11.2709 7.06948 13.5913C7.06948 15.7331 7.58369 17.8985 8.69173 19.3215C9.90681 20.8822 11.8196 21.6973 13.6945 21.6096C15.3293 21.5332 16.377 21.0798 16.377 21.0798ZM18.094 16.5127C17.4712 16.0287 16.5387 15.8396 15.7224 15.9271C15.0614 15.998 14.4944 16.2523 14.1826 16.5601L13.2624 17.4496C13.1792 17.5299 13.1128 17.626 13.067 17.7322C13.0212 17.8384 12.9969 17.9527 12.9955 18.0683C12.9941 18.184 13.0157 18.2988 13.059 18.4061C13.1023 18.5133 13.1664 18.6109 13.2477 18.6933L14.3349 19.7953C14.0953 19.8282 13.8544 19.8503 13.6129 19.8615C12.2865 19.9235 10.932 19.3504 10.0725 18.2464C9.1756 17.0945 8.81948 15.3251 8.81948 13.5913C8.81948 11.7221 9.29694 9.87616 10.3224 8.70964C11.1677 7.74831 12.4226 7.32189 13.6537 7.32189C14.9206 7.32189 16.2147 7.77107 17.0684 8.78184C18.0512 9.94529 18.4879 11.7665 18.4879 13.5913C18.4879 14.5838 18.3589 15.6157 18.094 16.5127Z" fill="white" fill-opacity="0.5"/>
</svg>
