<svg width="28" height="28" viewBox="0 0 28 28" fill="none" xmlns="http://www.w3.org/2000/svg">
<path d="M26.25 5.25H1.75V22.75H26.25V5.25Z" fill="#232B36"/>
<path d="M27.125 24.5H0.875C0.391781 24.5 0 24.1082 0 23.625V4.375C0 3.89178 0.391781 3.5 0.875 3.5H27.125C27.6082 3.5 28 3.89178 28 4.375V23.625C28 24.1082 27.6082 24.5 27.125 24.5ZM1.75 22.75H26.25V5.25H1.75V22.75Z" fill="white" fill-opacity="0.5"/>
<path d="M18.375 14.0009C18.3759 11.8843 16.8715 10.1189 14.875 9.71305V5.25H13.125V9.71305C11.1281 10.1189 9.62418 11.8843 9.625 14.0009C9.62462 16.1174 11.1276 17.882 13.125 18.2874V22.75H14.875V18.2874C16.8715 17.882 18.3759 16.1174 18.375 14.0009ZM11.3754 14.0009C11.3759 12.8585 12.1064 11.8894 13.125 11.5288V16.4729C12.1064 16.1124 11.3759 15.1433 11.3754 14.0009ZM14.875 16.4725V11.5284C15.894 11.8886 16.625 12.8585 16.625 14C16.6246 15.1416 15.894 16.1115 14.875 16.4725Z" fill="white" fill-opacity="0.5"/>
<path d="M26.2509 17.5C25.8134 17.5 25.8553 17.5 25.3741 17.5H24.4991C24.018 17.5 23.6241 17.1061 23.6241 16.625V11.375C23.6241 10.8939 24.018 10.5 24.4991 10.5H26.25C26.2504 10.5 26.2504 10.5 26.2504 10.5L26.2509 8.75C26.2509 8.75 26.2504 8.75 26.25 8.75H24.4991C23.0555 8.75 21.875 9.9318 21.875 11.375V16.625C21.875 18.0691 23.0555 19.25 24.4991 19.25H26.25C26.2504 19.25 26.2504 19.25 26.2504 19.25L26.2509 17.5Z" fill="white" fill-opacity="0.5"/>
<path d="M1.74902 10.5C2.18652 10.5 2.14463 10.5 2.62577 10.5H3.50077C3.98186 10.5 4.37577 10.8939 4.37577 11.375V16.625C4.37577 17.1061 3.98186 17.5 3.50077 17.5H1.7499C1.7499 17.5 1.74946 17.5 1.74902 17.5V19.25C1.74946 19.25 1.74946 19.25 1.74946 19.25H3.50077C4.94441 19.25 6.1249 18.0691 6.1249 16.625V11.375C6.1249 9.9318 4.94441 8.75 3.50077 8.75H1.7499C1.7499 8.75 1.74946 8.75 1.74902 8.75V10.5Z" fill="white" fill-opacity="0.5"/>
</svg>
